<svg xmlns="http://www.w3.org/2000/svg" viewBox="0 0 626.09 255">
  <defs>
    <style>
      .cls-1 {
        fill: #f5f5f5;
        fill-rule: evenodd;
      }
    </style>
  </defs>
  <path class="cls-1" d="M997.5,748A23.5,23.5,0,1,1,974,771.5,23.5,23.5,0,0,1,997.5,748ZM1176,792h-24l-69-148.553V792h-24V609h32l69,148.553V609h24V792h-8Zm66-63h100s2.96-25.375-4-46-28.17-35-55-35-65,17.786-65,72,26.41,74,67,74c37.3,0,50-6,50-6V767s-17.07,7-45,7S1243.29,759.682,1242,729Zm0-19h76s1.02-44-37-44S1242,710,1242,710Zm357,52c4.9,29.635-7.6,57.682-19,72-14.89,18.709-42.73,25-60,25H976V841h542c20.68,0,33.92-5.335,48-21,8.64-9.613,10.49-34.1,10.4-45.539-0.21-28.112-15.66-42.888-38.4-43.461-23.32-.588-26.53,3.4-32,7-3-4.122-6.84-10.247-12-18,18.87-16.13,58.99-49.027,59-49H1432v80c0,12.391,10.36,23,29,23a103.99,103.99,0,0,0,34-6v22s-10.43,4-35,4-52-8.364-52-43V671h-40V650h40V611l24-7v46h142l9,20-53,44C1583.79,705.273,1597.64,753.775,1599,762Z" transform="translate(-974 -604)"/>
</svg>
