<svg xmlns="http://www.w3.org/2000/svg" width="38.000000pt" height="38.000000pt" viewBox="0 0 737 396">
  <defs>
    <style>
      .cls-1 {
        fill: #651f75;
      }

      .cls-2 {
        fill: #fff;
        fill-rule: evenodd;
      }
    </style>
  </defs>
  <rect class="cls-1" width="737" height="396"/>
  <path id="Color_Fill_32_copy_4" data-name="Color Fill 32 copy 4" class="cls-2" d="M96.5,231A23.5,23.5,0,1,1,73,254.5,23.5,23.5,0,0,1,96.5,231ZM275,275H251L182,126.447V275H158V92h32l69,148.553V92h24V275h-8Zm66-63H441s2.962-25.375-4-46-28.171-35-55-35-65,17.786-65,72,26.407,74,67,74c37.3,0,50-6,50-6V250s-17.07,7-45,7S342.29,242.682,341,212Zm0-19h76s1.02-44-37-44S341,193,341,193Zm357,52c4.895,29.635-7.6,57.682-19,72-14.895,18.709-42.729,25-60,25H75V324H617c20.685,0,33.924-5.335,48-21,8.637-9.613,10.492-34.1,10.4-45.539C675.187,229.349,659.743,214.573,637,214c-23.322-.588-26.526,3.4-32,7-3-4.122-6.839-10.247-12-18,18.865-16.13,58.989-49.027,59-49H531v80c0,12.391,10.365,23,29,23a104.028,104.028,0,0,0,34-6v22s-10.432,4-35,4-52-8.364-52-43V154H467V133h40V94l24-7v46H673l9,20-53,44C682.789,188.273,696.641,236.775,698,245Z"/>
</svg>
