<?xml version="1.0" encoding="utf-8"?>
<!-- Svg Vector Icons : http://www.onlinewebfonts.com/icon -->
<!DOCTYPE svg PUBLIC "-//W3C//DTD SVG 1.1//EN" "http://www.w3.org/Graphics/SVG/1.1/DTD/svg11.dtd">
<svg version="1.1" xmlns="http://www.w3.org/2000/svg" xmlns:xlink="http://www.w3.org/1999/xlink" x="0px" y="0px" viewBox="0 0 1000 1000" enable-background="new 0 0 1000 1000" xml:space="preserve">
<metadata> Svg Vector Icons : http://www.onlinewebfonts.com/icon </metadata>
<g><g transform="translate(0.000000,511.000000) scale(0.100000,-0.100000)"><path d="M8911,4940.5c-1272.2-206.2-2258.5-447.2-3185.6-776c-145-53.1-279.8-108.2-296.1-124.6c-22.5-20.4-30.6-73.5-30.6-198.1c0-159.3-6.1-181.7-89.9-351.2c-73.5-147-124.6-216.4-277.7-369.6c-102.1-104.1-198.1-189.9-214.4-189.9c-18.4,0-22.5,20.4-12.3,77.6c42.9,255.3,55.1,398.2,42.9,514.6c-14.3,155.2-53.1,224.6-122.5,224.6c-63.3,0-473.8-196-837.2-398.2c-1143.5-639.2-1974.7-1390.6-2526-2289.1C1034.8,529.7,812.2-85,720.3-713.9c-42.9-292-49-931.2-10.2-1194.6c32.7-222.6,104.2-530.9,122.5-530.9c8.2,0,30.6,34.7,51.1,77.6c142.9,298.1,608.5,1045.5,896.5,1433.5c773.9,1045.5,2044.1,2370.8,3016.1,3146.8c657.5,524.8,1564.2,1119,2256.5,1480.5c367.6,192,608.5,294.1,692.2,294.1c120.5,0,177.7-130.7,100.1-220.5c-20.4-22.5-383.9-279.8-806.6-573.8C5801,2341,5149.5,1795.7,4193.9,825.8C3150.4-234,2329.5-1204,1618.8-2220.9c-212.4-304.3-798.4-1210.9-861.7-1335.5c-63.3-124.6-216.5-579.9-267.5-798.4c-51-222.6-40.8-296.1,61.3-381.9c124.6-104.1,202.2-67.4,477.8,216.4c228.7,236.9,559.5,645.3,959.8,1184.4l265.5,357.4l347.1,2.1c1229.3,8.2,2540.3,445.2,3706.3,1233.4C6967-1295.9,7587.7-695.6,7969.6-136c124.5,183.8,134.8,224.6,75.5,277.7c-79.6,73.5-831.1,249.1-1282.4,302.2c-128.6,14.3-210.3,32.7-210.3,47c0,26.5,330.8,169.5,567.7,243c314.5,98,484,118.5,953.6,110.3l428.8-6.1l44.9,91.9c93.9,194,332.8,812.7,332.8,861.7c0,77.6-61.3,116.4-361.4,236.9c-296.1,118.4-535,189.9-816.8,249.1c-204.2,40.8-228.7,51-198.1,79.6c28.6,26.6,404.3,163.4,579.9,210.4c200.1,53.1,553.4,57.2,802.5,8.1c126.6-24.5,189.9-28.6,216.5-14.3c61.3,34.7,249.1,839.3,347.1,1492.7c69.4,469.7,106.2,855.6,83.7,896.4C9490.9,5032.4,9466.4,5030.3,8911,4940.5z"/></g></g>
</svg>